<svg width="28" height="37" viewBox="0 0 28 37" fill="none" xmlns="http://www.w3.org/2000/svg">
<path d="M27.9331 22.2674V16.9832H21.6637V12.6853H0.765625V31.8495C0.765625 34.181 2.64011 36.0769 4.94524 36.0769H17.4841C19.7892 36.0769 21.6637 34.181 21.6637 31.8495V29.629C25.1989 29.1107 27.9331 25.9843 27.9331 22.2674ZM25.8433 22.2674C25.8433 24.8191 24.0455 27.0242 21.6637 27.5152V19.0969H25.8433V22.2674ZM5.93093 1.57083L4.53299 0C1.6044 2.66791 3.17991 4.71454 4.12074 5.93654C5.03914 7.13064 5.38299 7.57755 4.20642 8.76756L5.68399 10.262C8.16564 7.752 6.66564 5.80239 5.76967 4.63823C4.8085 3.38932 4.44828 2.92184 5.93093 1.57083ZM11.1555 1.57083L9.75751 0C6.82892 2.66791 8.40443 4.71454 9.34526 5.93654C10.2637 7.13064 10.6075 7.57755 9.43094 8.76756L10.9085 10.262C13.3902 7.752 11.8902 5.80239 10.9942 4.63823C10.033 3.38932 9.6728 2.92184 11.1555 1.57083ZM16.38 1.57083L14.982 0C12.0534 2.66791 13.629 4.71454 14.5698 5.93654C15.4882 7.13064 15.832 7.57755 14.6555 8.76756L16.133 10.262C18.6147 7.752 17.1147 5.80239 16.2187 4.63823C15.2575 3.38932 14.8973 2.92184 16.38 1.57083Z" fill="#64099B"/>
</svg>
